<svg xmlns="http://www.w3.org/2000/svg" xmlns:xlink="http://www.w3.org/1999/xlink"><defs><clipPath id="a"><path fill="#fff" d="M0 0h27v34H0z"/></clipPath><clipPath id="a"><path fill="#fff" transform="translate(.5)" d="M0 0h128v24H0z"/></clipPath><clipPath id="a"><path fill="#fff" transform="translate(0 .441)" d="M0 0h142.8v26.118H0z"/></clipPath><clipPath id="a"><path d="M0 0h101v18H0z"/></clipPath></defs><symbol id="contacts-email"><g fill="none"><path d="M.5 5.5v8h17v-8M.5.5h17v2L9 8.5l-8.5-6v-2Z"/></g></symbol><symbol id="contacts-phone"><g fill="none"><path d="M7 8h8.5m0 0L13 5.5M15.5 8 13 10.5M5.5.5v5h-3v5h3v5H3c-1.5 0-2.5-1-2.5-2.5V3C.5 1.5 1.5.5 3 .5h2.5Z"/></g></symbol><symbol id="icon-arrow"><g fill="none"><path stroke="#000" stroke-width="2" d="M0 6h18"/><path d="m24 6-6.75 5.196V.804L24 6Z" fill="#000"/></g></symbol><symbol id="logo-html"><g fill="currentColor"><g clip-path="url(#a)"><path d="M13.643.016 13.5 0 0 1.407v24.606L13.5 34 27 26.013V1.407L13.643.016Zm11.591 25L13.5 31.956 1.766 25.015V14.93l11.685 6.916.02 1.253-8.017-4.743-.011 1.225 8.046 4.809.02 1.286-8.045-4.758-.01 1.226L13.5 26.95l8.124-4.833V16.91l3.62-2.15-.01 10.256Zm0-11.564-3.22 1.88-1.482.875-7.065-4.187-.011 1.225 6.04 3.573-.053.031-.13.076-.86.492-4.986-2.948-.011 1.225 3.936 2.328-.933.61-.021.012-2.971-1.742-.011 1.225 1.947 1.135-1.988 1.186-11.618-6.872 11.638-6.958 11.8 6.834Zm0-1.225L13.44 5.31 1.766 12.22V2.99L13.5 1.764 25.234 2.99v9.237Z"/></g></g></symbol><symbol id="logotype-text-footer-mobile"><g fill="currentColor"><g clip-path="url(#a)"><path d="M2.103 22.051A9.498 9.498 0 0 1 .5 16.308V7.795a9.63 9.63 0 0 1 1.502-5.846C3.104.615 4.807 0 7.311 0s4.106.615 5.108 1.744a7.487 7.487 0 0 1 1.502 5.025v2.052H9.013V6.46a5.157 5.157 0 0 0-.3-2.05 1.463 1.463 0 0 0-.579-.63 1.415 1.415 0 0 0-.823-.191c-.701 0-1.202.205-1.403.718a6.774 6.774 0 0 0-.3 2.256v10.974a4.334 4.334 0 0 0 .4 2.154c.2.513.702.718 1.403.718.7 0 1.102-.205 1.302-.718.228-.693.33-1.423.3-2.154v-2.461h4.908v2.051a7.98 7.98 0 0 1-1.502 5.128c-1.002 1.231-2.705 1.847-5.108 1.847-2.404-.103-4.207-.718-5.208-2.052ZM19.83.308h5.71l4.206 23.384h-4.607l-.802-4.923h-3.305l-.801 4.923h-4.708L19.83.308Zm4.107 15.384-1.202-9.128-1.202 9.128h2.404ZM33.251 4.205h-3.405V.308h11.918v3.794H38.36v19.59h-5.108V4.205ZM50.879.308h8.814v2.461h-5.71v7.692h4.608v2.36h-4.607v8.615h5.709v2.359h-8.914V.308h.1ZM62.297.308H64.5l6.51 15.487V.308h2.604v23.384h-2.003l-6.61-16v16h-2.704V.308ZM76.619.308h8.814v2.461h-5.71v7.692h4.608v2.36h-4.607v8.615h5.709v2.359h-8.814V.308ZM88.037.308h4.607a7.873 7.873 0 0 1 5.108 1.436c1.102.923 1.602 2.564 1.602 4.717 0 2.975-.901 4.821-2.804 5.436l3.205 11.693H96.65l-3.005-10.975h-2.503V23.59h-3.205V.308h.1Zm4.407 10.05a4.302 4.302 0 0 0 2.904-.82c.601-.512.902-1.538.902-3.077a6.772 6.772 0 0 0-.3-2.256 2.583 2.583 0 0 0-1.103-1.23 4.473 4.473 0 0 0-2.203-.411h-1.402v7.692h1.202v.103ZM103.361 21.949a10.566 10.566 0 0 1-1.402-5.95V8.206c-.025-1.486.143-2.97.5-4.41a5.204 5.204 0 0 1 1.903-2.667 6.421 6.421 0 0 1 3.706-.923c2.103 0 3.606.513 4.507 1.641a7.982 7.982 0 0 1 1.402 5.128v.82h-3.004v-.717a15.503 15.503 0 0 0-.201-2.564 2.056 2.056 0 0 0-.801-1.334 3.04 3.04 0 0 0-1.903-.512 2.955 2.955 0 0 0-2.003.615 2.349 2.349 0 0 0-.801 1.641 19.734 19.734 0 0 0-.201 2.77v8.717a9.527 9.527 0 0 0 .601 3.898c.401.82 1.202 1.128 2.404 1.128.475.06.956-.024 1.384-.243a2.45 2.45 0 0 0 1.02-.988 9.635 9.635 0 0 0 .701-4.102V14.46h-2.905v-2.359h5.809v11.59h-2.003l-.3-2.666a4.18 4.18 0 0 1-1.554 2.21 4.016 4.016 0 0 1-2.553.764 4.907 4.907 0 0 1-2.406-.47 5.037 5.037 0 0 1-1.9-1.581ZM120.487 15.487 115.58.41h3.004l3.506 11.282L125.495.41h3.005l-4.908 15.077v8.205h-3.004v-8.205h-.101Z"/></g></g></symbol><symbol id="logotype-text-footer-tablet"><g fill="currentCollor"><g clip-path="url(#a)"><path d="M1.788 24.438A10.149 10.149 0 0 1 0 18.188V8.924a10.282 10.282 0 0 1 1.676-6.362c1.23-1.45 3.129-2.12 5.922-2.12 2.794 0 4.581.67 5.699 1.897a8.008 8.008 0 0 1 1.676 5.469v2.232H9.498V7.473c.044-.76-.07-1.52-.335-2.232a1.608 1.608 0 0 0-1.565-.893c-.782 0-1.34.223-1.564.781a7.203 7.203 0 0 0-.335 2.456v11.942a4.617 4.617 0 0 0 .447 2.344c.223.558.782.782 1.564.782s1.229-.224 1.452-.782a6.511 6.511 0 0 0 .336-2.344V16.85h5.475v2.232a8.532 8.532 0 0 1-1.676 5.58c-1.118 1.34-3.017 2.01-5.699 2.01-2.682-.112-4.693-.782-5.81-2.233ZM21.565.776h6.37l4.692 25.448h-5.14l-.893-5.357h-3.688l-.894 5.357h-5.251L21.565.776Zm4.582 16.742-1.341-9.933-1.341 9.933h2.682ZM36.538 5.018H32.74V.776h13.297v4.13h-3.8v21.318h-5.698V5.018ZM56.204.776h9.833v2.68h-6.37v8.37h5.14v2.567h-5.14v9.376h6.37v2.567h-9.945V.776h.112ZM68.942.776H71.4l7.263 16.854V.776h2.905v25.448h-2.234L71.959 8.813v17.411h-3.017V.776ZM84.92.776h9.833v2.68h-6.369v8.37h5.14v2.567h-5.14v9.376h6.37v2.567H84.92V.776ZM97.659.776h5.139a8.947 8.947 0 0 1 5.699 1.563c1.229 1.004 1.788 2.79 1.788 5.134 0 3.237-1.006 5.246-3.129 5.916l3.576 12.724h-3.464l-3.352-11.943h-2.794v11.943h-3.575V.776h.112Zm4.916 10.938a4.885 4.885 0 0 0 3.24-.893c.671-.558 1.006-1.674 1.006-3.348a7.196 7.196 0 0 0-.335-2.456 2.842 2.842 0 0 0-1.229-1.339 5.104 5.104 0 0 0-2.459-.446h-1.564v8.37h1.341v.112ZM114.754 24.327a11.281 11.281 0 0 1-1.564-6.474V9.371c-.028-1.618.16-3.232.559-4.8a5.671 5.671 0 0 1 2.123-2.902 7.302 7.302 0 0 1 4.134-1.004c2.347 0 4.023.558 5.028 1.786a8.536 8.536 0 0 1 1.565 5.58v.893h-3.353v-.781a16.405 16.405 0 0 0-.223-2.79 2.232 2.232 0 0 0-.894-1.451 3.455 3.455 0 0 0-2.123-.558 3.356 3.356 0 0 0-2.235.67 2.523 2.523 0 0 0-.894 1.785 20.819 20.819 0 0 0-.223 3.014V18.3a10.133 10.133 0 0 0 .67 4.241c.447.893 1.341 1.228 2.682 1.228a2.707 2.707 0 0 0 2.682-1.34 10.27 10.27 0 0 0 .782-4.464v-1.786h-3.241v-2.567h6.481v12.612h-2.234l-.336-2.902a4.555 4.555 0 0 1-4.581 3.237 5.594 5.594 0 0 1-4.805-2.232ZM133.861 17.295 128.386.888h3.352l3.911 12.277L139.448.888h3.352l-5.475 16.407v8.929h-3.352v-8.93h-.112Z"/></g></g></symbol><symbol id="logotype-text"><g fill="currentColor"><g clip-path="url(#a)"><path d="M1.264 16.538A6.865 6.865 0 0 1 0 12.231V5.846a6.95 6.95 0 0 1 1.185-4.384C2.055.462 3.398 0 5.374 0s3.24.462 4.03 1.308a5.422 5.422 0 0 1 1.186 3.769v1.538H6.718V4.846a3.693 3.693 0 0 0-.238-1.538 1.12 1.12 0 0 0-.456-.473 1.163 1.163 0 0 0-.65-.143c-.553 0-.948.154-1.106.539a4.846 4.846 0 0 0-.237 1.692v8.23a3.111 3.111 0 0 0 .316 1.616c.158.385.553.539 1.106.539s.87-.154 1.027-.539c.18-.52.26-1.067.238-1.615v-1.846h3.872v1.538a5.775 5.775 0 0 1-1.185 3.846c-.79.923-2.134 1.385-4.031 1.385-1.897-.077-3.32-.539-4.11-1.539ZM15.253.23h4.504l3.32 17.54H19.44l-.632-3.693H16.2l-.632 3.692h-3.715l3.4-17.538Zm3.24 11.54-.948-6.847-.949 6.846h1.897Zm7.35-8.616h-2.687V.23h9.404v2.846h-2.687v14.692h-4.03V3.154ZM39.752.23h6.955v1.847h-4.505v5.77h3.635v1.768h-3.635v6.462h4.505v1.77h-7.034V.23h.079Zm9.009 0H50.5l5.137 11.616V.231h2.055v17.538h-1.58l-5.217-12v12h-2.134V.231Zm11.302 0h6.954v1.847h-4.504v5.77h3.635v1.768h-3.635v6.462h4.504v1.77h-6.954V.23Zm9.009 0h3.635a6.451 6.451 0 0 1 4.03 1.078c.87.692 1.265 1.923 1.265 3.538 0 2.23-.71 3.616-2.212 4.077l2.528 8.77h-2.45l-2.37-8.231h-1.976v8.23h-2.529V.231h.079Zm3.477 7.54a3.524 3.524 0 0 0 2.292-.616c.474-.385.711-1.154.711-2.308a4.848 4.848 0 0 0-.237-1.692 1.975 1.975 0 0 0-.869-.923 3.69 3.69 0 0 0-1.739-.308h-1.106v5.77h.948v.076Zm8.614 8.692A7.613 7.613 0 0 1 80.058 12V6.154a12.26 12.26 0 0 1 .395-3.308 3.916 3.916 0 0 1 1.502-2c.882-.508 1.9-.75 2.924-.692 1.66 0 2.845.384 3.556 1.23a5.77 5.77 0 0 1 1.107 3.847v.615H87.17v-.538a11.04 11.04 0 0 0-.158-1.923 1.533 1.533 0 0 0-.633-1A2.493 2.493 0 0 0 84.878 2a2.416 2.416 0 0 0-1.58.462c-.187.152-.338.34-.447.551a1.701 1.701 0 0 0-.186.68 14.01 14.01 0 0 0-.158 2.076v6.539a6.816 6.816 0 0 0 .474 2.923c.316.615.949.846 1.897.846.374.045.754-.018 1.092-.182.337-.165.617-.422.805-.741a6.908 6.908 0 0 0 .553-3.077v-1.23h-2.292v-1.77h4.584v8.692h-1.58l-.238-2a3.143 3.143 0 0 1-1.226 1.658 3.288 3.288 0 0 1-2.014.573 4.046 4.046 0 0 1-1.899-.352 3.932 3.932 0 0 1-1.5-1.186Zm13.515-4.847L90.805.308h2.371l2.766 8.461L98.63.308H101l-3.872 11.307v6.154h-2.371v-6.154h-.08Z"/></g></g></symbol><symbol id="slider-button"><g fill="currentColor"><path d="M8 0 0 9l8 9V0ZM24 9l-8-9v18l8-9Z"/></g></symbol><symbol id="sprite"/><symbol id="telegram"><g fill="currentColor"><path fill-rule="evenodd" clip-rule="evenodd" d="M19.46.153c.18.15.265.382.227.611l-2.626 15.757a.657.657 0 0 1-1.012.439l-7.878-5.253a.656.656 0 0 1-.149-.956l2.611-3.263-4.36 2.906a.657.657 0 0 1-.658.041L.363 7.81a.657.657 0 0 1 .073-1.205L18.819.038a.657.657 0 0 1 .642.115ZM2.327 7.323 5.862 9.09l7.561-5.04a.656.656 0 0 1 .877.956l-4.805 6.006 6.438 4.292L18.208 1.65 2.326 7.323Z"/></g></symbol><symbol id="vkontakte"><g fill="currentColor"><path d="M1 5.339c0-.855.515-1.316 1.545-1.383l3.97.025a.52.52 0 0 1 .533.377c.409 1.257.866 2.343 1.372 3.257.506.913 1.168 1.965 1.985 3.156.071.15.187.226.346.226.125 0 .223-.059.293-.176l.08-.277.027-4.35c0-.302-.075-.503-.226-.604-.151-.1-.431-.176-.84-.226-.32-.05-.48-.235-.48-.553 0-.067.01-.118.027-.151.373-1.09 1.44-1.635 3.198-1.635L14.322 3c.675 0 1.234.16 1.678.478.444.318.666.821.666 1.509v5.708c.125.084.24.126.347.126.266 0 .497-.15.692-.453 1.954-2.582 3.011-4.308 3.17-5.18 0-.017.019-.059.054-.126.125-.251.329-.47.613-.654.284-.184.533-.31.746-.377a.554.554 0 0 1 .24-.05h4.13l.266.025c.355 0 .63.16.826.478.07.1.12.21.146.327.027.117.045.234.054.352.009.117.013.184.013.2v.177c-.124.687-.44 1.42-.946 2.2-.506.78-1.15 1.622-1.931 2.528-.782.905-1.27 1.5-1.466 1.785-.16.201-.24.386-.24.553 0 .135.071.286.213.453l3.89 4.627c.213.269.32.562.32.88 0 .386-.16.705-.48.956-.32.252-.701.394-1.145.428l-.453.025h-4.05a.855.855 0 0 0-.106.012.862.862 0 0 1-.107.013c-.39 0-.755-.16-1.092-.478-.125-.134-.96-1.123-2.505-2.967a1.387 1.387 0 0 0-.373-.327c-.07.268-.164.654-.28 1.157-.115.503-.2.863-.253 1.081l-.08.427c-.177.587-.55.94-1.119 1.057l-.373.025h-2.61c-1.475 0-2.945-.637-4.41-1.911-1.466-1.275-2.784-2.922-3.957-4.942-1.172-2.02-2.264-4.372-3.277-7.054A1.916 1.916 0 0 1 1 5.338Zm16.013 6.513c-.373 0-.71-.096-1.013-.29-.302-.192-.453-.456-.453-.791V4.987c0-.336-.089-.575-.266-.717-.178-.143-.489-.214-.933-.214l-1.518.05c-.764 0-1.341.126-1.732.378.781.352 1.172.922 1.172 1.71v4.426a1.5 1.5 0 0 1-.533 1.044 1.59 1.59 0 0 1-1.066.414c-.532 0-.94-.243-1.225-.729C8.06 9.371 7.03 7.493 6.356 5.716l-.24-.654-3.544-.025c-.231 0-.36.013-.386.038-.027.025-.04.096-.04.213 0 .151.017.31.053.478l.56 1.409c1.491 3.638 3.112 6.505 4.862 8.6 1.75 2.096 3.468 3.144 5.155 3.144h2.665c.106 0 .186-.03.24-.088.053-.06.097-.172.133-.34l.053-.251.506-2.213c.142-.302.267-.503.373-.604a.975.975 0 0 1 .693-.277c.426 0 .861.243 1.305.73l2.265 2.716c.142.218.293.327.453.327h4.396c.533 0 .8-.126.8-.378a.466.466 0 0 0-.08-.251l-3.864-4.552c-.302-.352-.453-.73-.453-1.131 0-.403.142-.788.427-1.157.23-.336.679-.893 1.345-1.673a37.63 37.63 0 0 0 1.745-2.187c.498-.68.826-1.296.986-1.849l.08-.327a.371.371 0 0 1-.027-.163.574.574 0 0 0-.026-.189h-4.183c-.267.1-.48.252-.64.453l-.16.478c-.444 1.156-1.607 2.942-3.49 5.356a1.892 1.892 0 0 1-1.305.503Z"/></g></symbol><symbol id="youtube"><g fill="currentColor"><path d="m15.85 8.793-5.236-3.491a.655.655 0 0 0-1.014.545v6.982a.655.655 0 0 0 1.014.546l5.237-3.491a.654.654 0 0 0 0-1.091Zm-4.94 2.814V7.07l3.403 2.27-3.404 2.268Zm12.48-8.563a2.4 2.4 0 0 0-1.452-1.637C18.218-.022 12.251 0 12 0c-.25 0-6.218-.022-9.938 1.407A2.4 2.4 0 0 0 .61 3.044C.327 4.113 0 6.076 0 9.338c0 3.262.327 5.226.61 6.295a2.4 2.4 0 0 0 1.452 1.636c3.72 1.43 9.687 1.407 9.938 1.407h.076c.753 0 6.317-.043 9.862-1.407a2.4 2.4 0 0 0 1.451-1.636c.284-1.07.611-3.033.611-6.295s-.327-5.225-.61-6.294Zm-1.266 12.261a1.09 1.09 0 0 1-.655.742c-3.49 1.342-9.404 1.32-9.469 1.32-.066 0-5.978.022-9.47-1.32a1.09 1.09 0 0 1-.654-.742c-.261-1.003-.567-2.847-.567-5.967 0-3.12.306-4.963.567-5.967a1.09 1.09 0 0 1 .655-.742C6.02 1.287 11.934 1.31 12 1.31c.066 0 5.978-.022 9.47 1.32a1.092 1.092 0 0 1 .654.742c.262 1.004.567 2.847.567 5.967 0 3.12-.305 4.964-.567 5.968Z"/></g></symbol></svg>